M48
;Layer_Color=9474304
;FILE_FORMAT=2:5
INCH,LZ
;TYPE=PLATED
T1F00S00C0.01181
T2F00S00C0.01500
T3F00S00C0.02800
T4F00S00C0.02953
T5F00S00C0.02984
T6F00S00C0.03087
T7F00S00C0.03150
T8F00S00C0.03189
T9F00S00C0.03346
T10F00S00C0.03937
T11F00S00C0.04016
T12F00S00C0.04331
T13F00S00C0.04528
T14F00S00C0.05000
T15F00S00C0.05039
T16F00S00C0.05118
T17F00S00C0.06220
T18F00S00C0.06299
T19F00S00C0.13386
%
T01
X03622Y01475
X03728Y0153
X06248Y01482
X0624004Y017078
X06035Y01816
X05909Y02545
X06107Y03
X0624004Y0310276
X05435Y02759
X0539748Y02693
X0540719Y0204681
X047Y0203
Y0199883
X04805Y03041
X04752Y03095
X03452Y03044
X03751Y01907
X0394Y0168
X04312Y01814
X04386Y0186452
X02858Y01652
X0232Y0168
X03361Y03183
X03281Y03463
X0334946Y0403242
X03639Y03831
X04292Y03873
X04309Y03724
X04257Y03652
X04496Y03711
X0461504Y03275
X04752Y03146
X05037Y03234
X05122Y03168
X0545Y0339481
X0564Y0321
X0580019Y03487
X0602Y0314
X0613496Y0320784
X05398Y03906
X0529Y03866
X05084Y03944
T02
X04281Y02714
T03
X0571264Y02575
T04
X0348937Y01755
X0395
X0295Y0244126
Y0252
X03855Y0374126
Y0382
X0490126Y03855
X0498
T05
X0462Y0336252
Y0367
X0472
X0482
X0492
Y0336252
X0482
X0472
T06
X0475Y0195752
X0485
X0495
X0505
X0515
X0525
Y02565
X0515
X0505
X0495
X0485
X0475
X0465
X0455
X0445
X0435
X0425
X0415
X0405
X0395
X0385
X0375
X0365
X0355
X0345
X0335
Y0195752
X0345
X0355
X0365
X0375
X0385
X0395
X0405
X0415
X0425
X0435
X0445
X0455
X0465
T07
X0524Y0157
Y017078
X02985Y020522
Y0219
X05035Y0409
X0511374
T08
X0577Y0274937
X0587
X0582Y0280437
X0577Y0298
X0587
X0582Y03035
X04685Y0278
X04635Y0274654
X04585Y0278
X05765Y0321
X05865
X05815Y03265
T09
X0394626Y0153
X04025
X0410374
X0418248
X0450126Y01525
X0458
X0465874
X0473748
X02255Y0177752
Y0185626
Y01935
Y0201374
T10
X03815Y0318
X042087
T11
X0292Y01535
X0302
X0312
X0345Y0153
X0355
X0365
X02495Y01795
Y01895
Y01995
T12
X0228Y014
Y015
X0238
Y014
X0248
Y015
X0258
Y014
X0268
Y015
X0278
Y014
X0332Y01775
X0276488
T13
X0435Y04095
X0445
X0455
X0465
X0475
T14
X05565Y0209
X05665
Y0239
X05565
T15
X04945Y02775
X05045
X05145
T16
X0322264Y0280165
X0292736
Y0340244
Y0360087
Y0379929
X0322264
Y0360087
Y0340244
T17
X02315Y04085
X02515
X02715
X02915
X03295Y04065
X03495
X03695
X03895
T18
X06125Y0211
Y0231
X02385Y02295
Y02495
X0239Y0292
Y0312
Y0354
Y0374
T19
X0206693Y0127953
X0610236
X0206693Y0413386
X0610236
M30
