G04*
G04 #@! TF.GenerationSoftware,Altium Limited,Altium Designer,22.2.1 (43)*
G04*
G04 Layer_Color=16711935*
%FSLAX25Y25*%
%MOIN*%
G70*
G04*
G04 #@! TF.SameCoordinates,9B2A0443-DB6B-4A28-8C2A-7826D6EB9F8E*
G04*
G04*
G04 #@! TF.FilePolarity,Negative*
G04*
G01*
G75*
%ADD26R,0.07087X0.07087*%
%ADD27C,0.07087*%
%ADD28C,0.05906*%
%ADD29R,0.06028X0.06028*%
%ADD30C,0.06028*%
%ADD31R,0.05315X0.05315*%
%ADD32C,0.05315*%
%ADD33C,0.07874*%
%ADD34R,0.07874X0.07874*%
%ADD35C,0.10039*%
%ADD36C,0.05118*%
%ADD37R,0.05118X0.05118*%
%ADD38R,0.06496X0.06496*%
%ADD39C,0.06496*%
%ADD40C,0.09921*%
%ADD41R,0.09921X0.09921*%
%ADD42C,0.08150*%
%ADD43R,0.08150X0.08150*%
%ADD44R,0.05252X0.05252*%
%ADD45C,0.05252*%
%ADD46C,0.16339*%
%ADD47C,0.05150*%
%ADD48R,0.05150X0.05150*%
%ADD49R,0.05118X0.05118*%
%ADD50C,0.06614*%
%ADD51R,0.06614X0.06614*%
%ADD52R,0.05315X0.05315*%
%ADD53C,0.07382*%
%ADD54R,0.07382X0.07382*%
%ADD55R,0.06028X0.06028*%
%ADD56R,0.06614X0.06614*%
%ADD57C,0.08091*%
%ADD58C,0.02953*%
%ADD59C,0.05591*%
%ADD60C,0.03591*%
D26*
X228000Y140000D02*
D03*
X332000Y177500D02*
D03*
D27*
X228000Y150000D02*
D03*
X238000Y140000D02*
D03*
Y150000D02*
D03*
X248000Y140000D02*
D03*
Y150000D02*
D03*
X258000Y140000D02*
D03*
Y150000D02*
D03*
X268000Y140000D02*
D03*
Y150000D02*
D03*
X278000Y140000D02*
D03*
Y150000D02*
D03*
X276488Y177500D02*
D03*
D28*
X577000Y274937D02*
D03*
X582000Y280437D02*
D03*
X587000Y274937D02*
D03*
X577000Y298000D02*
D03*
X582000Y303500D02*
D03*
X587000Y298000D02*
D03*
X576500Y321000D02*
D03*
X581500Y326500D02*
D03*
X586500Y321000D02*
D03*
X458500Y278000D02*
D03*
X463500Y274654D02*
D03*
X468500Y278000D02*
D03*
D29*
X473748Y152500D02*
D03*
X418248Y153000D02*
D03*
D30*
X465874Y152500D02*
D03*
X458000D02*
D03*
X450126D02*
D03*
X394626Y153000D02*
D03*
X402500D02*
D03*
X410374D02*
D03*
X225500Y185626D02*
D03*
Y193500D02*
D03*
Y201374D02*
D03*
D31*
X524000Y157000D02*
D03*
X298500Y219000D02*
D03*
D32*
X524000Y170780D02*
D03*
X298500Y205220D02*
D03*
X503500Y409000D02*
D03*
D33*
X322264Y379929D02*
D03*
Y360087D02*
D03*
Y340244D02*
D03*
X292736Y379929D02*
D03*
Y360087D02*
D03*
Y340244D02*
D03*
Y280165D02*
D03*
D34*
X322264D02*
D03*
D35*
X239000Y374000D02*
D03*
Y354000D02*
D03*
Y312000D02*
D03*
Y292000D02*
D03*
X238500Y229500D02*
D03*
Y249500D02*
D03*
X612500Y231000D02*
D03*
Y211000D02*
D03*
D36*
X295000Y252000D02*
D03*
X395000Y175500D02*
D03*
X385500Y382000D02*
D03*
X490126Y385500D02*
D03*
D37*
X295000Y244126D02*
D03*
X385500Y374126D02*
D03*
D38*
X381500Y318000D02*
D03*
D39*
X420870D02*
D03*
D40*
X329500Y406500D02*
D03*
X349500D02*
D03*
X369500D02*
D03*
X291500Y408500D02*
D03*
X271500D02*
D03*
X251500D02*
D03*
D41*
X389500Y406500D02*
D03*
X231500Y408500D02*
D03*
D42*
X494500Y277500D02*
D03*
X504500D02*
D03*
D43*
X514500D02*
D03*
D44*
X525000Y256500D02*
D03*
D45*
X515000D02*
D03*
X505000D02*
D03*
X495000D02*
D03*
X485000D02*
D03*
X475000D02*
D03*
X465000D02*
D03*
X455000D02*
D03*
X445000D02*
D03*
X435000D02*
D03*
X425000D02*
D03*
X415000D02*
D03*
X405000D02*
D03*
X395000D02*
D03*
X385000D02*
D03*
X375000D02*
D03*
X365000D02*
D03*
X355000D02*
D03*
X345000D02*
D03*
X335000D02*
D03*
Y195752D02*
D03*
X345000D02*
D03*
X355000D02*
D03*
X365000D02*
D03*
X375000D02*
D03*
X385000D02*
D03*
X395000D02*
D03*
X405000D02*
D03*
X415000D02*
D03*
X425000D02*
D03*
X435000D02*
D03*
X445000D02*
D03*
X455000D02*
D03*
X465000D02*
D03*
X475000D02*
D03*
X485000D02*
D03*
X495000D02*
D03*
X505000D02*
D03*
X515000D02*
D03*
X525000D02*
D03*
D46*
X206693Y413386D02*
D03*
Y127953D02*
D03*
X610236D02*
D03*
Y413386D02*
D03*
D47*
X462000Y367000D02*
D03*
X472000D02*
D03*
X482000D02*
D03*
X492000D02*
D03*
Y336252D02*
D03*
X482000D02*
D03*
X472000D02*
D03*
D48*
X462000D02*
D03*
D49*
X348937Y175500D02*
D03*
X498000Y385500D02*
D03*
D50*
X365000Y153000D02*
D03*
X355000D02*
D03*
X302000Y153500D02*
D03*
X312000D02*
D03*
X249500Y189500D02*
D03*
Y199500D02*
D03*
D51*
X345000Y153000D02*
D03*
X292000Y153500D02*
D03*
D52*
X511374Y409000D02*
D03*
D53*
X435000Y409500D02*
D03*
X445000D02*
D03*
X455000D02*
D03*
X465000D02*
D03*
D54*
X475000D02*
D03*
D55*
X225500Y177752D02*
D03*
D56*
X249500Y179500D02*
D03*
D57*
X566500Y239000D02*
D03*
X556500D02*
D03*
Y209000D02*
D03*
X566500D02*
D03*
D58*
X232000Y168000D02*
D03*
X602000Y314000D02*
D03*
X529000Y386600D02*
D03*
X334946Y403242D02*
D03*
X328100Y346300D02*
D03*
X394000Y168000D02*
D03*
X363900Y383100D02*
D03*
X610700Y300000D02*
D03*
X508400Y394400D02*
D03*
X470000Y203000D02*
D03*
X580019Y348700D02*
D03*
X590900Y254500D02*
D03*
X539748Y269300D02*
D03*
X449600Y371100D02*
D03*
X545000Y339481D02*
D03*
X624004Y310276D02*
D03*
X613496Y320784D02*
D03*
X624004Y170780D02*
D03*
X603500Y181600D02*
D03*
X431200Y181400D02*
D03*
X540719Y204681D02*
D03*
X461504Y327500D02*
D03*
X430900Y372400D02*
D03*
X425700Y365200D02*
D03*
X336100Y318300D02*
D03*
X362200Y147500D02*
D03*
X285800Y165200D02*
D03*
X503700Y323400D02*
D03*
X475200Y314600D02*
D03*
X470000Y199883D02*
D03*
X564000Y321000D02*
D03*
X345200Y304400D02*
D03*
X372800Y153000D02*
D03*
X480500Y304100D02*
D03*
X375100Y190700D02*
D03*
X438600Y186452D02*
D03*
X624800Y148200D02*
D03*
X429200Y387300D02*
D03*
X539800Y390600D02*
D03*
X475200Y309500D02*
D03*
X512200Y316800D02*
D03*
X543500Y275900D02*
D03*
D59*
X571264Y257500D02*
D03*
D60*
X428100Y271400D02*
D03*
M02*
