G04*
G04 #@! TF.GenerationSoftware,Altium Limited,Altium Designer,22.2.1 (43)*
G04*
G04 Layer_Color=65535*
%FSLAX25Y25*%
%MOIN*%
G70*
G04*
G04 #@! TF.SameCoordinates,9B2A0443-DB6B-4A28-8C2A-7826D6EB9F8E*
G04*
G04*
G04 #@! TF.FilePolarity,Positive*
G04*
G01*
G75*
%ADD10C,0.00394*%
%ADD11C,0.00787*%
%ADD12C,0.00984*%
%ADD13C,0.01000*%
D10*
X592906Y274937D02*
G03*
X593299Y274937I197J0D01*
G01*
D02*
G03*
X592906Y274937I-197J0D01*
G01*
Y298000D02*
G03*
X593299Y298000I197J0D01*
G01*
D02*
G03*
X592906Y298000I-197J0D01*
G01*
X592406Y321000D02*
G03*
X592799Y321000I197J0D01*
G01*
D02*
G03*
X592406Y321000I-197J0D01*
G01*
X473748Y146201D02*
G03*
X473748Y146595I0J197D01*
G01*
D02*
G03*
X473748Y146201I0J-197D01*
G01*
X529764Y313461D02*
G03*
X529764Y313067I0J-197D01*
G01*
D02*
G03*
X529764Y313461I0J197D01*
G01*
X452201Y278000D02*
G03*
X452595Y278000I197J0D01*
G01*
D02*
G03*
X452201Y278000I-197J0D01*
G01*
X338307Y153000D02*
G03*
X337913Y153000I-197J0D01*
G01*
D02*
G03*
X338307Y153000I197J0D01*
G01*
X418248Y147095D02*
G03*
X418248Y146701I0J-197D01*
G01*
D02*
G03*
X418248Y147095I0J197D01*
G01*
X284913Y153500D02*
G03*
X285307Y153500I197J0D01*
G01*
D02*
G03*
X284913Y153500I-197J0D01*
G01*
X219201Y177752D02*
G03*
X219595Y177752I197J0D01*
G01*
D02*
G03*
X219201Y177752I-197J0D01*
G01*
X249500Y172413D02*
G03*
X249500Y172807I0J197D01*
G01*
D02*
G03*
X249500Y172413I0J-197D01*
G01*
X574913Y268835D02*
X589087D01*
X574913Y291898D02*
X589087D01*
X574413Y314898D02*
X588587D01*
X217937Y344000D02*
X258291D01*
Y384000D01*
X217937D02*
X258291D01*
X217937Y344000D02*
Y384000D01*
Y282000D02*
X258291D01*
Y322000D01*
X217937D02*
X258291D01*
X217937Y282000D02*
Y322000D01*
X316193Y400594D02*
Y414374D01*
Y400594D02*
X402807D01*
Y414374D01*
X316193D02*
X402807D01*
X304807Y400626D02*
Y414406D01*
X218193D02*
X304807D01*
X218193Y400626D02*
Y414406D01*
Y400626D02*
X304807D01*
X456413Y284102D02*
X470587D01*
X217437Y219500D02*
Y259500D01*
X257791D01*
Y219500D02*
Y259500D01*
X217437Y219500D02*
X257791D01*
X633563Y201000D02*
Y241000D01*
X593209Y201000D02*
X633563D01*
X593209D02*
Y241000D01*
X633563D01*
X549098Y201598D02*
X573902D01*
X549098D02*
Y246402D01*
X573902D01*
Y201598D02*
Y246402D01*
D11*
X539748Y163890D02*
G03*
X539748Y163890I-15748J0D01*
G01*
X260260Y352819D02*
G03*
X260260Y353213I0J197D01*
G01*
D02*
G03*
X260260Y352819I0J-197D01*
G01*
D02*
G03*
X260260Y353213I0J197D01*
G01*
Y290819D02*
G03*
X260260Y291213I0J197D01*
G01*
D02*
G03*
X260260Y290819I0J-197D01*
G01*
D02*
G03*
X260260Y291213I0J197D01*
G01*
X304842Y248063D02*
G03*
X304842Y248063I-9843J0D01*
G01*
X314248Y212110D02*
G03*
X314248Y212110I-15748J0D01*
G01*
X444492Y318000D02*
G03*
X444492Y318000I-43307J0D01*
G01*
X395342Y378063D02*
G03*
X395342Y378063I-9843J0D01*
G01*
X259760Y228319D02*
G03*
X259760Y228713I0J197D01*
G01*
D02*
G03*
X259760Y228319I0J-197D01*
G01*
D02*
G03*
X259760Y228713I0J197D01*
G01*
X503905Y385500D02*
G03*
X503905Y385500I-9843J0D01*
G01*
X413878Y381000D02*
G03*
X413878Y381000I-197J0D01*
G01*
X591240Y232181D02*
G03*
X591240Y231787I0J-197D01*
G01*
D02*
G03*
X591240Y232181I0J197D01*
G01*
D02*
G03*
X591240Y231787I0J-197D01*
G01*
X578311Y239000D02*
G03*
X577524Y239000I-394J0D01*
G01*
D02*
G03*
X578311Y239000I394J0D01*
G01*
X222311Y135000D02*
Y140000D01*
Y135000D02*
X283689D01*
Y155000D01*
X228000D02*
X283689D01*
X608606Y384736D02*
X609394D01*
X608606Y389264D02*
X609394D01*
X626858Y173736D02*
X627646D01*
X626858Y178264D02*
X627646D01*
X600858Y153236D02*
X601646D01*
X600858Y157764D02*
X601646D01*
X446189Y148563D02*
X477685D01*
X446189D02*
Y156437D01*
X477685D01*
Y148563D02*
Y156437D01*
X482606Y174736D02*
X483394D01*
X482606Y179264D02*
X483394D01*
X627106Y154236D02*
X627894D01*
X627106Y158764D02*
X627894D01*
X599858Y174236D02*
X600646D01*
X599858Y178764D02*
X600646D01*
X574354Y158264D02*
X575142D01*
X574354Y153736D02*
X575142D01*
X560984Y339563D02*
Y345350D01*
X519016Y339563D02*
X560984D01*
X519016D02*
Y345350D01*
X282500Y270913D02*
Y385087D01*
X327677D02*
X332500D01*
X298150D02*
X316850D01*
X282500D02*
X287323D01*
X332500Y270913D02*
Y385087D01*
X282500Y270913D02*
X332500D01*
X496264Y155854D02*
Y156642D01*
X491736Y155854D02*
Y156642D01*
X552358Y173736D02*
X553146D01*
X552358Y178264D02*
X553146D01*
X419063Y177953D02*
X426937D01*
X419063Y172047D02*
X426937D01*
X294992Y172874D02*
X313496D01*
X294992D02*
Y182126D01*
X313496D01*
Y172874D02*
Y182126D01*
X308870Y172874D02*
X313496Y177500D01*
X327374D01*
X281114D02*
X294992D01*
X609354Y291264D02*
X610142D01*
X609354Y286736D02*
X610142D01*
X525248Y264921D02*
Y277500D01*
X483752Y264921D02*
X525248D01*
X483752D02*
Y283386D01*
X534748Y197126D02*
Y258831D01*
X325252Y197126D02*
Y255126D01*
X497000Y337626D02*
Y365626D01*
X457000Y333972D02*
Y365626D01*
X525858Y402264D02*
X526646D01*
X525858Y397736D02*
X526646D01*
X546606Y401764D02*
X547394D01*
X546606Y397236D02*
X547394D01*
X573354Y178764D02*
X574142D01*
X573354Y174236D02*
X574142D01*
X552606Y159264D02*
X553394D01*
X552606Y154736D02*
X553394D01*
X552606Y293764D02*
X553394D01*
X552606Y289236D02*
X553394D01*
X553106Y275264D02*
X553894D01*
X553106Y270736D02*
X553894D01*
X464354Y296736D02*
X465142D01*
X464354Y301264D02*
X465142D01*
X610106Y267736D02*
X610894D01*
X610106Y272264D02*
X610894D01*
X590354Y342764D02*
X591142D01*
X590354Y338236D02*
X591142D01*
X609358Y349264D02*
X610146D01*
X609358Y344736D02*
X610146D01*
X581858Y364264D02*
X582646D01*
X581858Y359736D02*
X582646D01*
X574354Y338236D02*
X575142D01*
X574354Y342764D02*
X575142D01*
X501854Y318764D02*
X502642D01*
X501854Y314236D02*
X502642D01*
X583354Y379236D02*
X584142D01*
X583354Y383764D02*
X584142D01*
X520106Y289736D02*
X520894D01*
X520106Y294264D02*
X520894D01*
X483354Y301764D02*
X484142D01*
X483354Y297236D02*
X484142D01*
X482606Y314736D02*
X483394D01*
X482606Y319264D02*
X483394D01*
X464358Y314736D02*
X465146D01*
X464358Y319264D02*
X465146D01*
X609854Y324736D02*
X610642D01*
X609854Y329264D02*
X610642D01*
X503606Y289736D02*
X504394D01*
X503606Y294264D02*
X504394D01*
X447606Y179764D02*
X448394D01*
X447606Y175236D02*
X448394D01*
X609106Y306236D02*
X609894D01*
X609106Y310764D02*
X609894D01*
X564854Y401764D02*
X565642D01*
X564854Y397236D02*
X565642D01*
X609606Y253264D02*
X610394D01*
X609606Y248736D02*
X610394D01*
X582858Y401764D02*
X583646D01*
X582858Y397236D02*
X583646D01*
X536106Y275764D02*
X536894D01*
X536106Y271236D02*
X536894D01*
X536106Y294264D02*
X536894D01*
X536106Y289736D02*
X536894D01*
X609358Y364236D02*
X610146D01*
X609358Y368764D02*
X610146D01*
X363602Y179142D02*
X380335D01*
Y171858D02*
Y179142D01*
X363602Y171858D02*
X380335D01*
X363602D02*
Y179142D01*
Y175500D02*
X367244Y179142D01*
X352579Y175500D02*
X363602D01*
X380335D02*
X391358D01*
X340000Y148256D02*
Y157744D01*
Y148256D02*
X370000D01*
Y157744D01*
X340000D02*
X370000D01*
X422185Y149063D02*
Y156937D01*
X390689D02*
X422185D01*
X390689Y149063D02*
Y156937D01*
Y149063D02*
X422185D01*
X287000Y158244D02*
X317000D01*
Y148756D02*
Y158244D01*
X287000Y148756D02*
X317000D01*
X287000D02*
Y158244D01*
X515311Y409000D02*
Y412937D01*
X499563D02*
X515311D01*
X499563Y405063D02*
Y412937D01*
Y405063D02*
X511374D01*
X430098Y404854D02*
X475000D01*
X430098D02*
Y414146D01*
X479902D01*
Y409500D02*
Y414146D01*
X221563Y173815D02*
Y205311D01*
X229437D01*
Y173815D02*
Y205311D01*
X221563Y173815D02*
X229437D01*
X244756Y174500D02*
Y204500D01*
X254244D01*
Y174500D02*
Y204500D01*
X244756Y174500D02*
X254244D01*
D12*
X322657Y267469D02*
G03*
X322657Y267469I-492J0D01*
G01*
D13*
X222200Y166098D02*
Y160100D01*
Y162099D01*
X226199Y166098D01*
X223200Y163099D01*
X226199Y160100D01*
X228198D02*
X230197D01*
X229198D01*
Y166098D01*
X228198Y165098D01*
X233196Y160100D02*
X235196D01*
X234196D01*
Y166098D01*
X233196Y165098D01*
X238195Y159100D02*
X242194D01*
X244193Y166098D02*
Y162099D01*
X246192Y160100D01*
X248192Y162099D01*
Y166098D01*
X254190Y160100D02*
X250191D01*
X254190Y164099D01*
Y165098D01*
X253190Y166098D01*
X251191D01*
X250191Y165098D01*
X568001Y310999D02*
X572000D01*
X570001D01*
Y305001D01*
X573999D02*
X575999D01*
X574999D01*
Y310999D01*
X573999Y309999D01*
X603752Y393001D02*
Y398999D01*
X606751D01*
X607750Y397999D01*
Y396000D01*
X606751Y395000D01*
X603752D01*
X605751D02*
X607750Y393001D01*
X609750Y397999D02*
X610749Y398999D01*
X612749D01*
X613748Y397999D01*
Y397000D01*
X612749Y396000D01*
X611749D01*
X612749D01*
X613748Y395000D01*
Y394001D01*
X612749Y393001D01*
X610749D01*
X609750Y394001D01*
X615748Y392001D02*
X619746D01*
X621746Y397999D02*
X622745Y398999D01*
X624745D01*
X625744Y397999D01*
Y397000D01*
X624745Y396000D01*
X623745D01*
X624745D01*
X625744Y395000D01*
Y394001D01*
X624745Y393001D01*
X622745D01*
X621746Y394001D01*
X622800Y183400D02*
Y189398D01*
X625799D01*
X626799Y188398D01*
Y186399D01*
X625799Y185399D01*
X622800D01*
X624799D02*
X626799Y183400D01*
X632797D02*
X628798D01*
X632797Y187399D01*
Y188398D01*
X631797Y189398D01*
X629798D01*
X628798Y188398D01*
X634796Y182400D02*
X638795D01*
X644793Y183400D02*
X640794D01*
X644793Y187399D01*
Y188398D01*
X643793Y189398D01*
X641794D01*
X640794Y188398D01*
X597255Y163001D02*
Y168999D01*
X600254D01*
X601254Y167999D01*
Y166000D01*
X600254Y165000D01*
X597255D01*
X599254D02*
X601254Y163001D01*
X603253D02*
X605253D01*
X604253D01*
Y168999D01*
X603253Y167999D01*
X608251Y162001D02*
X612250D01*
X614250Y163001D02*
X616249D01*
X615249D01*
Y168999D01*
X614250Y167999D01*
X443100Y170598D02*
Y164600D01*
Y166599D01*
X447099Y170598D01*
X444100Y167599D01*
X447099Y164600D01*
X453097Y170598D02*
X451097Y169598D01*
X449098Y167599D01*
Y165600D01*
X450098Y164600D01*
X452097D01*
X453097Y165600D01*
Y166599D01*
X452097Y167599D01*
X449098D01*
X455096Y163600D02*
X459095D01*
X465093Y170598D02*
X463094Y169598D01*
X461094Y167599D01*
Y165600D01*
X462094Y164600D01*
X464093D01*
X465093Y165600D01*
Y166599D01*
X464093Y167599D01*
X461094D01*
X467092Y163600D02*
X471091D01*
X477089Y170598D02*
X475090Y169598D01*
X473090Y167599D01*
Y165600D01*
X474090Y164600D01*
X476089D01*
X477089Y165600D01*
Y166599D01*
X476089Y167599D01*
X473090D01*
X482599Y189398D02*
X481599Y190398D01*
X479600D01*
X478600Y189398D01*
Y185400D01*
X479600Y184400D01*
X481599D01*
X482599Y185400D01*
X488597Y190398D02*
X484598D01*
Y187399D01*
X486597Y188399D01*
X487597D01*
X488597Y187399D01*
Y185400D01*
X487597Y184400D01*
X485598D01*
X484598Y185400D01*
X490596Y183400D02*
X494595D01*
X500593Y190398D02*
X496594D01*
Y187399D01*
X498594Y188399D01*
X499593D01*
X500593Y187399D01*
Y185400D01*
X499593Y184400D01*
X497594D01*
X496594Y185400D01*
X622750Y167999D02*
X621751Y168999D01*
X619751D01*
X618752Y167999D01*
Y164000D01*
X619751Y163001D01*
X621751D01*
X622750Y164000D01*
X627749Y163001D02*
Y168999D01*
X624750Y166000D01*
X628748D01*
X630748Y162001D02*
X634746D01*
X639745Y163001D02*
Y168999D01*
X636746Y166000D01*
X640744D01*
X599799Y188898D02*
X598799Y189898D01*
X596800D01*
X595800Y188898D01*
Y184900D01*
X596800Y183900D01*
X598799D01*
X599799Y184900D01*
X601798Y188898D02*
X602798Y189898D01*
X604797D01*
X605797Y188898D01*
Y187899D01*
X604797Y186899D01*
X603797D01*
X604797D01*
X605797Y185899D01*
Y184900D01*
X604797Y183900D01*
X602798D01*
X601798Y184900D01*
X607796Y182900D02*
X611795D01*
X613794Y188898D02*
X614794Y189898D01*
X616793D01*
X617793Y188898D01*
Y187899D01*
X616793Y186899D01*
X615794D01*
X616793D01*
X617793Y185899D01*
Y184900D01*
X616793Y183900D01*
X614794D01*
X613794Y184900D01*
X574299Y168398D02*
X573299Y169398D01*
X571300D01*
X570300Y168398D01*
Y164400D01*
X571300Y163400D01*
X573299D01*
X574299Y164400D01*
X580297Y163400D02*
X576298D01*
X580297Y167399D01*
Y168398D01*
X579297Y169398D01*
X577298D01*
X576298Y168398D01*
X582296Y162400D02*
X586295D01*
X592293Y163400D02*
X588294D01*
X592293Y167399D01*
Y168398D01*
X591293Y169398D01*
X589294D01*
X588294Y168398D01*
X511002Y187499D02*
X510002Y188499D01*
X508003D01*
X507003Y187499D01*
Y183501D01*
X508003Y182501D01*
X510002D01*
X511002Y183501D01*
X513001Y182501D02*
X515000D01*
X514001D01*
Y188499D01*
X513001Y187499D01*
X518000Y181501D02*
X521998D01*
X523998Y182501D02*
X525997D01*
X524997D01*
Y188499D01*
X523998Y187499D01*
X515800Y393698D02*
X517799D01*
X516800D01*
Y387700D01*
X515800D01*
X517799D01*
X524797Y392698D02*
X523797Y393698D01*
X521798D01*
X520798Y392698D01*
Y388700D01*
X521798Y387700D01*
X523797D01*
X524797Y388700D01*
X526796Y387700D02*
X528796D01*
X527796D01*
Y393698D01*
X526796Y392698D01*
X282700Y388900D02*
Y394898D01*
X285699D01*
X286699Y393898D01*
Y391899D01*
X285699Y390899D01*
X282700D01*
X284699D02*
X286699Y388900D01*
X292697Y394898D02*
X288698D01*
Y388900D01*
X292697D01*
X288698Y391899D02*
X290697D01*
X294696Y388900D02*
X296695D01*
X295696D01*
Y394898D01*
X294696Y393898D01*
X491600Y164700D02*
Y170698D01*
X494599D01*
X495599Y169698D01*
Y167699D01*
X494599Y166699D01*
X491600D01*
X493599D02*
X495599Y164700D01*
X501597Y170698D02*
X499597Y169698D01*
X497598Y167699D01*
Y165700D01*
X498598Y164700D01*
X500597D01*
X501597Y165700D01*
Y166699D01*
X500597Y167699D01*
X497598D01*
X548300Y182400D02*
Y188398D01*
X551299D01*
X552299Y187398D01*
Y185399D01*
X551299Y184399D01*
X548300D01*
X550299D02*
X552299Y182400D01*
X554298Y187398D02*
X555298Y188398D01*
X557297D01*
X558297Y187398D01*
Y186399D01*
X557297Y185399D01*
X556297D01*
X557297D01*
X558297Y184399D01*
Y183400D01*
X557297Y182400D01*
X555298D01*
X554298Y183400D01*
X214800Y397098D02*
Y391100D01*
Y393099D01*
X218799Y397098D01*
X215800Y394099D01*
X218799Y391100D01*
X224797D02*
X220798D01*
X224797Y395099D01*
Y396098D01*
X223797Y397098D01*
X221798D01*
X220798Y396098D01*
X214800Y335098D02*
Y329100D01*
Y331099D01*
X218799Y335098D01*
X215800Y332099D01*
X218799Y329100D01*
X220798D02*
X222797D01*
X221798D01*
Y335098D01*
X220798Y334098D01*
X410000Y192098D02*
Y186100D01*
X412999D01*
X413999Y187100D01*
Y191098D01*
X412999Y192098D01*
X410000D01*
X419997Y186100D02*
X415998D01*
X419997Y190099D01*
Y191098D01*
X418997Y192098D01*
X416998D01*
X415998Y191098D01*
X273200Y192598D02*
Y186600D01*
X276199D01*
X277199Y187600D01*
Y191598D01*
X276199Y192598D01*
X273200D01*
X279198Y186600D02*
X281197D01*
X280198D01*
Y192598D01*
X279198Y191598D01*
X288099Y267998D02*
X287099Y268998D01*
X285100D01*
X284100Y267998D01*
Y264000D01*
X285100Y263000D01*
X287099D01*
X288099Y264000D01*
X294097Y268998D02*
X290098D01*
Y265999D01*
X292097Y266999D01*
X293097D01*
X294097Y265999D01*
Y264000D01*
X293097Y263000D01*
X291098D01*
X290098Y264000D01*
X285699Y237898D02*
X284699Y238898D01*
X282700D01*
X281700Y237898D01*
Y233900D01*
X282700Y232900D01*
X284699D01*
X285699Y233900D01*
X290697Y232900D02*
Y238898D01*
X287698Y235899D01*
X291697D01*
X360799Y371398D02*
X359799Y372398D01*
X357800D01*
X356800Y371398D01*
Y367400D01*
X357800Y366400D01*
X359799D01*
X360799Y367400D01*
X362798Y366400D02*
X364797D01*
X363798D01*
Y372398D01*
X362798Y371398D01*
X313100Y427498D02*
Y421500D01*
X316099D01*
X317099Y422500D01*
Y423499D01*
X316099Y424499D01*
X313100D01*
X316099D01*
X317099Y425499D01*
Y426498D01*
X316099Y427498D01*
X313100D01*
X323097Y421500D02*
X319098D01*
X323097Y425499D01*
Y426498D01*
X322097Y427498D01*
X320098D01*
X319098Y426498D01*
X215100Y427498D02*
Y421500D01*
X218099D01*
X219099Y422500D01*
Y423499D01*
X218099Y424499D01*
X215100D01*
X218099D01*
X219099Y425499D01*
Y426498D01*
X218099Y427498D01*
X215100D01*
X221098Y421500D02*
X223097D01*
X222098D01*
Y427498D01*
X221098Y426498D01*
X609299Y300398D02*
X608299Y301398D01*
X606300D01*
X605300Y300398D01*
Y296400D01*
X606300Y295400D01*
X608299D01*
X609299Y296400D01*
X611298Y295400D02*
X613297D01*
X612298D01*
Y301398D01*
X611298Y300398D01*
X620295Y295400D02*
X616296D01*
X620295Y299399D01*
Y300398D01*
X619296Y301398D01*
X617296D01*
X616296Y300398D01*
X459002Y292999D02*
X463000D01*
X461001D01*
Y287001D01*
X468998Y292999D02*
X465000D01*
Y290000D01*
X466999Y291000D01*
X467999D01*
X468998Y290000D01*
Y288001D01*
X467999Y287001D01*
X465999D01*
X465000Y288001D01*
X565002Y286999D02*
X569000D01*
X567001D01*
Y281001D01*
X573999D02*
Y286999D01*
X571000Y284000D01*
X574998D01*
X483700Y293498D02*
X487699D01*
X485699D01*
Y287500D01*
X489698Y292498D02*
X490698Y293498D01*
X492697D01*
X493697Y292498D01*
Y291499D01*
X492697Y290499D01*
X491697D01*
X492697D01*
X493697Y289499D01*
Y288500D01*
X492697Y287500D01*
X490698D01*
X489698Y288500D01*
X561002Y330999D02*
X565000D01*
X563001D01*
Y325001D01*
X570998D02*
X567000D01*
X570998Y329000D01*
Y329999D01*
X569999Y330999D01*
X567999D01*
X567000Y329999D01*
X521800Y406400D02*
Y412398D01*
X524799D01*
X525799Y411398D01*
Y409399D01*
X524799Y408399D01*
X521800D01*
X523799D02*
X525799Y406400D01*
X531797D02*
X527798D01*
X531797Y410399D01*
Y411398D01*
X530797Y412398D01*
X528798D01*
X527798Y411398D01*
X537795Y406400D02*
X533796D01*
X537795Y410399D01*
Y411398D01*
X536795Y412398D01*
X534796D01*
X533796Y411398D01*
X542600Y405900D02*
Y411898D01*
X545599D01*
X546599Y410898D01*
Y408899D01*
X545599Y407899D01*
X542600D01*
X544599D02*
X546599Y405900D01*
X552597D02*
X548598D01*
X552597Y409899D01*
Y410898D01*
X551597Y411898D01*
X549598D01*
X548598Y410898D01*
X554596Y405900D02*
X556596D01*
X555596D01*
Y411898D01*
X554596Y410898D01*
X569300Y182900D02*
Y188898D01*
X572299D01*
X573299Y187898D01*
Y185899D01*
X572299Y184899D01*
X569300D01*
X571299D02*
X573299Y182900D01*
X579297D02*
X575298D01*
X579297Y186899D01*
Y187898D01*
X578297Y188898D01*
X576298D01*
X575298Y187898D01*
X581296D02*
X582296Y188898D01*
X584295D01*
X585295Y187898D01*
Y183900D01*
X584295Y182900D01*
X582296D01*
X581296Y183900D01*
Y187898D01*
X548600Y163400D02*
Y169398D01*
X551599D01*
X552599Y168398D01*
Y166399D01*
X551599Y165399D01*
X548600D01*
X550599D02*
X552599Y163400D01*
X554598D02*
X556597D01*
X555598D01*
Y169398D01*
X554598Y168398D01*
X559596Y164400D02*
X560596Y163400D01*
X562596D01*
X563595Y164400D01*
Y168398D01*
X562596Y169398D01*
X560596D01*
X559596Y168398D01*
Y167399D01*
X560596Y166399D01*
X563595D01*
X548600Y297900D02*
Y303898D01*
X551599D01*
X552599Y302898D01*
Y300899D01*
X551599Y299899D01*
X548600D01*
X550599D02*
X552599Y297900D01*
X554598D02*
X556597D01*
X555598D01*
Y303898D01*
X554598Y302898D01*
X559596D02*
X560596Y303898D01*
X562596D01*
X563595Y302898D01*
Y301899D01*
X562596Y300899D01*
X563595Y299899D01*
Y298900D01*
X562596Y297900D01*
X560596D01*
X559596Y298900D01*
Y299899D01*
X560596Y300899D01*
X559596Y301899D01*
Y302898D01*
X560596Y300899D02*
X562596D01*
X549100Y279400D02*
Y285398D01*
X552099D01*
X553099Y284398D01*
Y282399D01*
X552099Y281399D01*
X549100D01*
X551099D02*
X553099Y279400D01*
X555098D02*
X557097D01*
X556098D01*
Y285398D01*
X555098Y284398D01*
X560096Y285398D02*
X564095D01*
Y284398D01*
X560096Y280400D01*
Y279400D01*
X460300Y305400D02*
Y311398D01*
X463299D01*
X464299Y310398D01*
Y308399D01*
X463299Y307399D01*
X460300D01*
X462299D02*
X464299Y305400D01*
X466298D02*
X468297D01*
X467298D01*
Y311398D01*
X466298Y310398D01*
X475295Y311398D02*
X473296Y310398D01*
X471296Y308399D01*
Y306400D01*
X472296Y305400D01*
X474296D01*
X475295Y306400D01*
Y307399D01*
X474296Y308399D01*
X471296D01*
X606100Y276400D02*
Y282398D01*
X609099D01*
X610099Y281398D01*
Y279399D01*
X609099Y278399D01*
X606100D01*
X608099D02*
X610099Y276400D01*
X612098D02*
X614097D01*
X613098D01*
Y282398D01*
X612098Y281398D01*
X621095Y282398D02*
X617096D01*
Y279399D01*
X619096Y280399D01*
X620095D01*
X621095Y279399D01*
Y277400D01*
X620095Y276400D01*
X618096D01*
X617096Y277400D01*
X586300Y346900D02*
Y352898D01*
X589299D01*
X590299Y351898D01*
Y349899D01*
X589299Y348899D01*
X586300D01*
X588299D02*
X590299Y346900D01*
X592298D02*
X594297D01*
X593298D01*
Y352898D01*
X592298Y351898D01*
X600295Y346900D02*
Y352898D01*
X597296Y349899D01*
X601295D01*
X605300Y353400D02*
Y359398D01*
X608299D01*
X609299Y358398D01*
Y356399D01*
X608299Y355399D01*
X605300D01*
X607299D02*
X609299Y353400D01*
X611298D02*
X613297D01*
X612298D01*
Y359398D01*
X611298Y358398D01*
X616296D02*
X617296Y359398D01*
X619296D01*
X620295Y358398D01*
Y357399D01*
X619296Y356399D01*
X618296D01*
X619296D01*
X620295Y355399D01*
Y354400D01*
X619296Y353400D01*
X617296D01*
X616296Y354400D01*
X577800Y368400D02*
Y374398D01*
X580799D01*
X581799Y373398D01*
Y371399D01*
X580799Y370399D01*
X577800D01*
X579799D02*
X581799Y368400D01*
X583798D02*
X585797D01*
X584798D01*
Y374398D01*
X583798Y373398D01*
X592795Y368400D02*
X588796D01*
X592795Y372399D01*
Y373398D01*
X591795Y374398D01*
X589796D01*
X588796Y373398D01*
X570300Y346900D02*
Y352898D01*
X573299D01*
X574299Y351898D01*
Y349899D01*
X573299Y348899D01*
X570300D01*
X572299D02*
X574299Y346900D01*
X576298D02*
X578297D01*
X577298D01*
Y352898D01*
X576298Y351898D01*
X581296Y346900D02*
X583296D01*
X582296D01*
Y352898D01*
X581296Y351898D01*
X497800Y322900D02*
Y328898D01*
X500799D01*
X501799Y327898D01*
Y325899D01*
X500799Y324899D01*
X497800D01*
X499799D02*
X501799Y322900D01*
X503798D02*
X505797D01*
X504798D01*
Y328898D01*
X503798Y327898D01*
X508796D02*
X509796Y328898D01*
X511796D01*
X512795Y327898D01*
Y323900D01*
X511796Y322900D01*
X509796D01*
X508796Y323900D01*
Y327898D01*
X579300Y387900D02*
Y393898D01*
X582299D01*
X583299Y392898D01*
Y390899D01*
X582299Y389899D01*
X579300D01*
X581299D02*
X583299Y387900D01*
X585298Y388900D02*
X586298Y387900D01*
X588297D01*
X589297Y388900D01*
Y392898D01*
X588297Y393898D01*
X586298D01*
X585298Y392898D01*
Y391899D01*
X586298Y390899D01*
X589297D01*
X516100Y298400D02*
Y304398D01*
X519099D01*
X520099Y303398D01*
Y301399D01*
X519099Y300399D01*
X516100D01*
X518099D02*
X520099Y298400D01*
X522098Y303398D02*
X523098Y304398D01*
X525097D01*
X526097Y303398D01*
Y302399D01*
X525097Y301399D01*
X526097Y300399D01*
Y299400D01*
X525097Y298400D01*
X523098D01*
X522098Y299400D01*
Y300399D01*
X523098Y301399D01*
X522098Y302399D01*
Y303398D01*
X523098Y301399D02*
X525097D01*
X479300Y305900D02*
Y311898D01*
X482299D01*
X483299Y310898D01*
Y308899D01*
X482299Y307899D01*
X479300D01*
X481299D02*
X483299Y305900D01*
X485298Y311898D02*
X489297D01*
Y310898D01*
X485298Y306900D01*
Y305900D01*
X478600Y323400D02*
Y329398D01*
X481599D01*
X482599Y328398D01*
Y326399D01*
X481599Y325399D01*
X478600D01*
X480599D02*
X482599Y323400D01*
X488597Y329398D02*
X484598D01*
Y326399D01*
X486597Y327399D01*
X487597D01*
X488597Y326399D01*
Y324400D01*
X487597Y323400D01*
X485598D01*
X484598Y324400D01*
X460300Y323400D02*
Y329398D01*
X463299D01*
X464299Y328398D01*
Y326399D01*
X463299Y325399D01*
X460300D01*
X462299D02*
X464299Y323400D01*
X469297D02*
Y329398D01*
X466298Y326399D01*
X470297D01*
X605800Y333400D02*
Y339398D01*
X608799D01*
X609799Y338398D01*
Y336399D01*
X608799Y335399D01*
X605800D01*
X607799D02*
X609799Y333400D01*
X615797D02*
X611798D01*
X615797Y337399D01*
Y338398D01*
X614797Y339398D01*
X612798D01*
X611798Y338398D01*
X499600Y298400D02*
Y304398D01*
X502599D01*
X503599Y303398D01*
Y301399D01*
X502599Y300399D01*
X499600D01*
X501599D02*
X503599Y298400D01*
X505598D02*
X507597D01*
X506598D01*
Y304398D01*
X505598Y303398D01*
X546000Y259498D02*
Y253500D01*
X549999D01*
X555997D02*
X551998D01*
X555997Y257499D01*
Y258498D01*
X554997Y259498D01*
X552998D01*
X551998Y258498D01*
X410300Y406598D02*
Y400600D01*
X414299D01*
X416298D02*
X418297D01*
X417298D01*
Y406598D01*
X416298Y405598D01*
X387600Y171098D02*
Y165100D01*
Y167099D01*
X391599Y171098D01*
X388600Y168099D01*
X391599Y165100D01*
X393598Y164100D02*
X397597D01*
X403595Y171098D02*
X401595Y170098D01*
X399596Y168099D01*
Y166100D01*
X400596Y165100D01*
X402595D01*
X403595Y166100D01*
Y167099D01*
X402595Y168099D01*
X399596D01*
X336900Y170898D02*
Y164900D01*
Y166899D01*
X340899Y170898D01*
X337900Y167899D01*
X340899Y164900D01*
X342898D02*
X344897D01*
X343898D01*
Y170898D01*
X342898Y169898D01*
X347896D02*
X348896Y170898D01*
X350896D01*
X351895Y169898D01*
Y165900D01*
X350896Y164900D01*
X348896D01*
X347896Y165900D01*
Y169898D01*
X430000Y424198D02*
Y418200D01*
Y420199D01*
X433999Y424198D01*
X431000Y421199D01*
X433999Y418200D01*
X435998Y419200D02*
X436998Y418200D01*
X438997D01*
X439997Y419200D01*
Y423198D01*
X438997Y424198D01*
X436998D01*
X435998Y423198D01*
Y422199D01*
X436998Y421199D01*
X439997D01*
X587900Y254098D02*
Y248100D01*
Y250099D01*
X591899Y254098D01*
X588900Y251099D01*
X591899Y248100D01*
X593898Y253098D02*
X594898Y254098D01*
X596897D01*
X597897Y253098D01*
Y252099D01*
X596897Y251099D01*
X597897Y250099D01*
Y249100D01*
X596897Y248100D01*
X594898D01*
X593898Y249100D01*
Y250099D01*
X594898Y251099D01*
X593898Y252099D01*
Y253098D01*
X594898Y251099D02*
X596897D01*
X283900Y171398D02*
Y165400D01*
Y167399D01*
X287899Y171398D01*
X284900Y168399D01*
X287899Y165400D01*
X289898Y171398D02*
X293897D01*
Y170398D01*
X289898Y166400D01*
Y165400D01*
X218400Y218398D02*
Y212400D01*
Y214399D01*
X222399Y218398D01*
X219400Y215399D01*
X222399Y212400D01*
X228397Y218398D02*
X226397Y217398D01*
X224398Y215399D01*
Y213400D01*
X225398Y212400D01*
X227397D01*
X228397Y213400D01*
Y214399D01*
X227397Y215399D01*
X224398D01*
X499500Y422998D02*
Y417000D01*
Y418999D01*
X503499Y422998D01*
X500500Y419999D01*
X503499Y417000D01*
X509497Y422998D02*
X505498D01*
Y419999D01*
X507497Y420999D01*
X508497D01*
X509497Y419999D01*
Y418000D01*
X508497Y417000D01*
X506498D01*
X505498Y418000D01*
X241600Y217598D02*
Y211600D01*
Y213599D01*
X245599Y217598D01*
X242600Y214599D01*
X245599Y211600D01*
X250597D02*
Y217598D01*
X247598Y214599D01*
X251597D01*
X214300Y272598D02*
Y266600D01*
Y268599D01*
X218299Y272598D01*
X215300Y269599D01*
X218299Y266600D01*
X220298Y271598D02*
X221298Y272598D01*
X223297D01*
X224297Y271598D01*
Y270599D01*
X223297Y269599D01*
X222297D01*
X223297D01*
X224297Y268599D01*
Y267600D01*
X223297Y266600D01*
X221298D01*
X220298Y267600D01*
X325200Y269798D02*
X327199D01*
X326200D01*
Y263800D01*
X325200D01*
X327199D01*
X334197Y268798D02*
X333197Y269798D01*
X331198D01*
X330198Y268798D01*
Y264800D01*
X331198Y263800D01*
X333197D01*
X334197Y264800D01*
X336196Y268798D02*
X337196Y269798D01*
X339195D01*
X340195Y268798D01*
Y267799D01*
X339195Y266799D01*
X338196D01*
X339195D01*
X340195Y265799D01*
Y264800D01*
X339195Y263800D01*
X337196D01*
X336196Y264800D01*
X456900Y380198D02*
X458899D01*
X457900D01*
Y374200D01*
X456900D01*
X458899D01*
X465897Y379198D02*
X464897Y380198D01*
X462898D01*
X461898Y379198D01*
Y375200D01*
X462898Y374200D01*
X464897D01*
X465897Y375200D01*
X471895Y374200D02*
X467896D01*
X471895Y378199D01*
Y379198D01*
X470895Y380198D01*
X468896D01*
X467896Y379198D01*
X346600Y189598D02*
Y183600D01*
X349599D01*
X350599Y184600D01*
Y188598D01*
X349599Y189598D01*
X346600D01*
X352598Y188598D02*
X353598Y189598D01*
X355597D01*
X356597Y188598D01*
Y187599D01*
X355597Y186599D01*
X354597D01*
X355597D01*
X356597Y185599D01*
Y184600D01*
X355597Y183600D01*
X353598D01*
X352598Y184600D01*
X447599Y188898D02*
X446599Y189898D01*
X444600D01*
X443600Y188898D01*
Y184900D01*
X444600Y183900D01*
X446599D01*
X447599Y184900D01*
X449598Y183900D02*
X451597D01*
X450598D01*
Y189898D01*
X449598Y188898D01*
X457595Y183900D02*
Y189898D01*
X454596Y186899D01*
X458595D01*
X609099Y319898D02*
X608099Y320898D01*
X606100D01*
X605100Y319898D01*
Y315900D01*
X606100Y314900D01*
X608099D01*
X609099Y315900D01*
X611098Y314900D02*
X613097D01*
X612098D01*
Y320898D01*
X611098Y319898D01*
X616096D02*
X617096Y320898D01*
X619096D01*
X620095Y319898D01*
Y318899D01*
X619096Y317899D01*
X618096D01*
X619096D01*
X620095Y316899D01*
Y315900D01*
X619096Y314900D01*
X617096D01*
X616096Y315900D01*
X564799Y410898D02*
X563799Y411898D01*
X561800D01*
X560800Y410898D01*
Y406900D01*
X561800Y405900D01*
X563799D01*
X564799Y406900D01*
X566798Y405900D02*
X568797D01*
X567798D01*
Y411898D01*
X566798Y410898D01*
X571796Y405900D02*
X573796D01*
X572796D01*
Y411898D01*
X571796Y410898D01*
X378599Y397998D02*
X377599Y398998D01*
X375600D01*
X374600Y397998D01*
Y394000D01*
X375600Y393000D01*
X377599D01*
X378599Y394000D01*
X380598Y393000D02*
X382597D01*
X381598D01*
Y398998D01*
X380598Y397998D01*
X385596D02*
X386596Y398998D01*
X388596D01*
X389595Y397998D01*
Y394000D01*
X388596Y393000D01*
X386596D01*
X385596Y394000D01*
Y397998D01*
X609599Y262398D02*
X608599Y263398D01*
X606600D01*
X605600Y262398D01*
Y258400D01*
X606600Y257400D01*
X608599D01*
X609599Y258400D01*
X611598D02*
X612598Y257400D01*
X614597D01*
X615597Y258400D01*
Y262398D01*
X614597Y263398D01*
X612598D01*
X611598Y262398D01*
Y261399D01*
X612598Y260399D01*
X615597D01*
X582799Y410898D02*
X581799Y411898D01*
X579800D01*
X578800Y410898D01*
Y406900D01*
X579800Y405900D01*
X581799D01*
X582799Y406900D01*
X584798Y410898D02*
X585798Y411898D01*
X587797D01*
X588797Y410898D01*
Y409899D01*
X587797Y408899D01*
X588797Y407899D01*
Y406900D01*
X587797Y405900D01*
X585798D01*
X584798Y406900D01*
Y407899D01*
X585798Y408899D01*
X584798Y409899D01*
Y410898D01*
X585798Y408899D02*
X587797D01*
X536099Y284898D02*
X535099Y285898D01*
X533100D01*
X532100Y284898D01*
Y280900D01*
X533100Y279900D01*
X535099D01*
X536099Y280900D01*
X538098Y285898D02*
X542097D01*
Y284898D01*
X538098Y280900D01*
Y279900D01*
X536099Y303398D02*
X535099Y304398D01*
X533100D01*
X532100Y303398D01*
Y299400D01*
X533100Y298400D01*
X535099D01*
X536099Y299400D01*
X542097Y304398D02*
X540097Y303398D01*
X538098Y301399D01*
Y299400D01*
X539098Y298400D01*
X541097D01*
X542097Y299400D01*
Y300399D01*
X541097Y301399D01*
X538098D01*
X609299Y377898D02*
X608299Y378898D01*
X606300D01*
X605300Y377898D01*
Y373900D01*
X606300Y372900D01*
X608299D01*
X609299Y373900D01*
X611298Y377898D02*
X612298Y378898D01*
X614297D01*
X615297Y377898D01*
Y376899D01*
X614297Y375899D01*
X613297D01*
X614297D01*
X615297Y374899D01*
Y373900D01*
X614297Y372900D01*
X612298D01*
X611298Y373900D01*
X487199Y405398D02*
X486199Y406398D01*
X484200D01*
X483200Y405398D01*
Y401400D01*
X484200Y400400D01*
X486199D01*
X487199Y401400D01*
X493197Y400400D02*
X489198D01*
X493197Y404399D01*
Y405398D01*
X492197Y406398D01*
X490198D01*
X489198Y405398D01*
M02*
