G04*
G04 #@! TF.GenerationSoftware,Altium Limited,Altium Designer,22.2.1 (43)*
G04*
G04 Layer_Color=8421504*
%FSLAX25Y25*%
%MOIN*%
G70*
G04*
G04 #@! TF.SameCoordinates,9B2A0443-DB6B-4A28-8C2A-7826D6EB9F8E*
G04*
G04*
G04 #@! TF.FilePolarity,Positive*
G04*
G01*
G75*
%ADD14R,0.03347X0.05315*%
%ADD15R,0.42126X0.33858*%
%ADD16R,0.03937X0.13386*%
%ADD17R,0.05315X0.03347*%
%ADD18R,0.04921X0.07874*%
%ADD19R,0.07480X0.20079*%
D14*
X612248Y387000D02*
D03*
X605752D02*
D03*
X630500Y176000D02*
D03*
X624004D02*
D03*
X604500Y155500D02*
D03*
X598004D02*
D03*
X486248Y177000D02*
D03*
X479752D02*
D03*
X630748Y156500D02*
D03*
X624252D02*
D03*
X603500Y176500D02*
D03*
X597004D02*
D03*
X571500Y156000D02*
D03*
X577996D02*
D03*
X556000Y176000D02*
D03*
X549504D02*
D03*
X606500Y289000D02*
D03*
X612996D02*
D03*
X523004Y400000D02*
D03*
X529500D02*
D03*
X543752Y399500D02*
D03*
X550248D02*
D03*
X570500Y176500D02*
D03*
X576996D02*
D03*
X549752Y157000D02*
D03*
X556248D02*
D03*
X549752Y291500D02*
D03*
X556248D02*
D03*
X550252Y273000D02*
D03*
X556748D02*
D03*
X467996Y299000D02*
D03*
X461500D02*
D03*
X613748Y270000D02*
D03*
X607252D02*
D03*
X587500Y340500D02*
D03*
X593996D02*
D03*
X606504Y347000D02*
D03*
X613000D02*
D03*
X579004Y362000D02*
D03*
X585500D02*
D03*
X577996Y340500D02*
D03*
X571500D02*
D03*
X499000Y316500D02*
D03*
X505496D02*
D03*
X586996Y381500D02*
D03*
X580500D02*
D03*
X523748Y292000D02*
D03*
X517252D02*
D03*
X480500Y299500D02*
D03*
X486996D02*
D03*
X486248Y317000D02*
D03*
X479752D02*
D03*
X468000D02*
D03*
X461504D02*
D03*
X613496Y327000D02*
D03*
X607000D02*
D03*
X507248Y292000D02*
D03*
X500752D02*
D03*
X444752Y177500D02*
D03*
X451248D02*
D03*
X612748Y308500D02*
D03*
X606252D02*
D03*
X562000Y399500D02*
D03*
X568496D02*
D03*
X606752Y251000D02*
D03*
X613248D02*
D03*
X580004Y399500D02*
D03*
X586500D02*
D03*
X533252Y273500D02*
D03*
X539748D02*
D03*
X533252Y292000D02*
D03*
X539748D02*
D03*
X613000Y366500D02*
D03*
X606504D02*
D03*
D15*
X540000Y363677D02*
D03*
D16*
X550000Y321945D02*
D03*
X540000D02*
D03*
X530000D02*
D03*
D17*
X494000Y159496D02*
D03*
Y153000D02*
D03*
D18*
X415618Y175000D02*
D03*
X430382D02*
D03*
D19*
X420964Y381000D02*
D03*
X437500D02*
D03*
M02*
