G04*
G04 #@! TF.GenerationSoftware,Altium Limited,Altium Designer,22.2.1 (43)*
G04*
G04 Layer_Physical_Order=1*
G04 Layer_Color=255*
%FSLAX25Y25*%
%MOIN*%
G70*
G04*
G04 #@! TF.SameCoordinates,9B2A0443-DB6B-4A28-8C2A-7826D6EB9F8E*
G04*
G04*
G04 #@! TF.FilePolarity,Positive*
G04*
G01*
G75*
%ADD14R,0.03347X0.05315*%
%ADD15R,0.42126X0.33858*%
%ADD16R,0.03937X0.13386*%
%ADD17R,0.05315X0.03347*%
%ADD18R,0.04921X0.07874*%
%ADD19R,0.07480X0.20079*%
%ADD33C,0.07874*%
%ADD34R,0.07874X0.07874*%
%ADD61C,0.02000*%
%ADD62C,0.05000*%
%ADD63R,0.06496X0.06496*%
%ADD64C,0.06496*%
%ADD65C,0.05315*%
%ADD66R,0.05437X0.05437*%
%ADD67C,0.05437*%
%ADD68R,0.04724X0.04724*%
%ADD69C,0.04724*%
%ADD70C,0.09449*%
%ADD71C,0.04528*%
%ADD72R,0.04528X0.04528*%
%ADD73R,0.05906X0.05906*%
%ADD74C,0.05906*%
%ADD75C,0.09331*%
%ADD76R,0.09331X0.09331*%
%ADD77C,0.07559*%
%ADD78R,0.07559X0.07559*%
%ADD79R,0.04661X0.04661*%
%ADD80C,0.04661*%
%ADD81C,0.15748*%
%ADD82C,0.04559*%
%ADD83R,0.04559X0.04559*%
%ADD84R,0.04528X0.04528*%
%ADD85C,0.06024*%
%ADD86R,0.06024X0.06024*%
%ADD87R,0.04724X0.04724*%
%ADD88C,0.06791*%
%ADD89R,0.06791X0.06791*%
%ADD90R,0.05437X0.05437*%
%ADD91R,0.06024X0.06024*%
%ADD92C,0.07500*%
%ADD93C,0.02362*%
%ADD94C,0.05000*%
%ADD95C,0.03000*%
D14*
X612248Y387000D02*
D03*
X605752D02*
D03*
X630500Y176000D02*
D03*
X624004D02*
D03*
X604500Y155500D02*
D03*
X598004D02*
D03*
X486248Y177000D02*
D03*
X479752D02*
D03*
X630748Y156500D02*
D03*
X624252D02*
D03*
X603500Y176500D02*
D03*
X597004D02*
D03*
X571500Y156000D02*
D03*
X577996D02*
D03*
X556000Y176000D02*
D03*
X549504D02*
D03*
X606500Y289000D02*
D03*
X612996D02*
D03*
X523004Y400000D02*
D03*
X529500D02*
D03*
X543752Y399500D02*
D03*
X550248D02*
D03*
X570500Y176500D02*
D03*
X576996D02*
D03*
X549752Y157000D02*
D03*
X556248D02*
D03*
X549752Y291500D02*
D03*
X556248D02*
D03*
X550252Y273000D02*
D03*
X556748D02*
D03*
X467996Y299000D02*
D03*
X461500D02*
D03*
X613748Y270000D02*
D03*
X607252D02*
D03*
X587500Y340500D02*
D03*
X593996D02*
D03*
X606504Y347000D02*
D03*
X613000D02*
D03*
X579004Y362000D02*
D03*
X585500D02*
D03*
X577996Y340500D02*
D03*
X571500D02*
D03*
X499000Y316500D02*
D03*
X505496D02*
D03*
X586996Y381500D02*
D03*
X580500D02*
D03*
X523748Y292000D02*
D03*
X517252D02*
D03*
X480500Y299500D02*
D03*
X486996D02*
D03*
X486248Y317000D02*
D03*
X479752D02*
D03*
X468000D02*
D03*
X461504D02*
D03*
X613496Y327000D02*
D03*
X607000D02*
D03*
X507248Y292000D02*
D03*
X500752D02*
D03*
X444752Y177500D02*
D03*
X451248D02*
D03*
X612748Y308500D02*
D03*
X606252D02*
D03*
X562000Y399500D02*
D03*
X568496D02*
D03*
X606752Y251000D02*
D03*
X613248D02*
D03*
X580004Y399500D02*
D03*
X586500D02*
D03*
X533252Y273500D02*
D03*
X539748D02*
D03*
X533252Y292000D02*
D03*
X539748D02*
D03*
X613000Y366500D02*
D03*
X606504D02*
D03*
D15*
X540000Y363677D02*
D03*
D16*
X550000Y321945D02*
D03*
X540000D02*
D03*
X530000D02*
D03*
D17*
X494000Y159496D02*
D03*
Y153000D02*
D03*
D18*
X415618Y175000D02*
D03*
X430382D02*
D03*
D19*
X420964Y381000D02*
D03*
X437500D02*
D03*
D33*
X322264Y379929D02*
D03*
Y360087D02*
D03*
Y340244D02*
D03*
X292736Y379929D02*
D03*
Y360087D02*
D03*
Y340244D02*
D03*
Y280165D02*
D03*
D34*
X322264D02*
D03*
D61*
X472103Y298414D02*
G03*
X472102Y298414I-1414J-1414D01*
G01*
X394000Y167902D02*
X394626Y167276D01*
Y153000D02*
Y167276D01*
X293100Y256600D02*
X316500D01*
X290900Y248226D02*
Y254400D01*
X293100Y256600D01*
X522331Y397076D02*
Y399327D01*
X521159Y395904D02*
X522331Y397076D01*
X514000Y400181D02*
X518277Y395904D01*
X522331Y399327D02*
X523677Y400673D01*
X518277Y395904D02*
X521159D01*
X515562Y393200D02*
X527600D01*
X511381Y397381D02*
X515562Y393200D01*
X527600D02*
X529500Y395100D01*
Y400000D01*
X549575Y398827D02*
X550248Y399500D01*
X537000Y394600D02*
X548403D01*
X529000Y386600D02*
X537000Y394600D01*
X549575Y395772D02*
Y398827D01*
X548403Y394600D02*
X549575Y395772D01*
X228000Y140000D02*
X233077Y145077D01*
X232000Y167902D02*
Y168000D01*
X233077Y145077D02*
Y166825D01*
X232000Y167902D02*
X233077Y166825D01*
X602004Y250000D02*
X606752D01*
X385500Y379100D02*
X393000D01*
X238000Y134000D02*
Y140000D01*
X232000Y128000D02*
X238000Y134000D01*
X220000Y128000D02*
X232000D01*
X613248Y252000D02*
X615300D01*
X273250Y144750D02*
X278000Y140000D01*
X273250Y144750D02*
Y152750D01*
X268000Y158000D02*
X273250Y152750D01*
X262000Y158000D02*
X268000D01*
X485000Y256500D02*
Y256500D01*
Y247600D02*
Y256500D01*
X219136Y128864D02*
X220000Y128000D01*
X219136Y128864D02*
Y167236D01*
X248000Y140000D02*
X258000Y130000D01*
X286300D01*
X268000Y140000D02*
X268008Y139992D01*
X269179Y134000D02*
X284628D01*
X268008Y135172D02*
Y139992D01*
X284628Y134000D02*
X285800Y135172D01*
Y165200D01*
X268008Y135172D02*
X269179Y134000D01*
X294000Y137700D02*
Y146000D01*
X286300Y130000D02*
X294000Y137700D01*
X237300Y182700D02*
X262000Y158000D01*
X237300Y182700D02*
Y189574D01*
X499000Y316500D02*
Y329252D01*
Y311172D02*
Y316500D01*
X571500Y156000D02*
Y162700D01*
Y151172D02*
Y156000D01*
X296900Y148900D02*
Y155300D01*
X294000Y146000D02*
X296900Y148900D01*
X581500Y326500D02*
Y326537D01*
Y316500D02*
Y326500D01*
X582000Y209400D02*
Y280498D01*
X591500Y279437D02*
Y306500D01*
X581500Y316500D02*
X591500Y306500D01*
X594300Y316400D02*
X596700Y314000D01*
X602000D01*
X505496Y316800D02*
X512200D01*
X334946Y403242D02*
Y403340D01*
X336823Y408423D02*
X345900Y417500D01*
X336823Y405217D02*
Y408423D01*
X345900Y417500D02*
X447000D01*
X334946Y403340D02*
X336823Y405217D01*
X447000Y417500D02*
X455000Y409500D01*
X380665Y414700D02*
X429800D01*
X375965Y410000D02*
X380665Y414700D01*
X429800D02*
X435000Y409500D01*
X328100Y346300D02*
X333887D01*
X387621Y400035D01*
X462173Y300828D02*
X464845Y303500D01*
X462173Y299673D02*
Y300828D01*
X464845Y303500D02*
X473463D01*
X461500Y299000D02*
X462173Y299673D01*
X458027Y303327D02*
X461000Y306300D01*
X394000Y167902D02*
Y168000D01*
X387700Y178452D02*
X405000Y195752D01*
X376100Y147500D02*
X387700Y159100D01*
Y178452D01*
X570500Y167300D02*
X570912Y162648D01*
X531000Y150000D02*
X570328D01*
X524000Y157000D02*
X531000Y150000D01*
X570328D02*
X571500Y151172D01*
Y303500D02*
Y334000D01*
Y340500D01*
X587500Y335172D02*
Y340500D01*
X586328Y334000D02*
X587500Y335172D01*
X571500Y334000D02*
X586328D01*
X545000Y339481D02*
X550000Y334481D01*
Y321945D02*
Y334481D01*
X363900Y383100D02*
X375965Y395165D01*
X477935Y397235D02*
X493900Y413200D01*
X585000Y409500D02*
X590000Y404500D01*
X467000Y370162D02*
X499819Y402981D01*
X518828Y413200D02*
X520000Y412028D01*
X512881Y402981D02*
X515600Y405700D01*
X590000Y381500D02*
Y404500D01*
X586996Y381500D02*
X590000D01*
X586996Y375408D02*
Y381500D01*
X493900Y413200D02*
X518828D01*
X586996Y375408D02*
X606504Y355900D01*
X468000Y317000D02*
Y335400D01*
X467000Y336400D02*
X468000Y335400D01*
X238500Y249500D02*
X245100D01*
X607000Y327000D02*
Y342850D01*
X245100Y249500D02*
X392835Y397235D01*
X520000Y409500D02*
X585000D01*
X499819Y402981D02*
X512881D01*
X606504Y347000D02*
Y355900D01*
Y343346D02*
X607000Y342850D01*
X392835Y397235D02*
X477935D01*
X515600Y409500D02*
X520000D01*
X515600Y405700D02*
Y409500D01*
X606504Y343346D02*
Y347000D01*
X520000Y409500D02*
Y412028D01*
X467000Y336400D02*
Y370162D01*
X612996Y289000D02*
Y297704D01*
X610700Y300000D02*
X612996Y297704D01*
X517252Y287500D02*
Y297600D01*
X499000Y311172D02*
X500172Y310000D01*
X507652Y307200D02*
X517252Y297600D01*
X490601Y308241D02*
X494442Y304400D01*
X494800Y310600D02*
X498200Y307200D01*
X494442Y304400D02*
X504700D01*
X534943Y310000D02*
X540000Y315057D01*
X498200Y307200D02*
X507652D01*
X504700Y304400D02*
X507248Y301852D01*
X500172Y310000D02*
X534943D01*
X523748Y298805D02*
X534943Y310000D01*
X583701Y393701D02*
X586500Y396500D01*
Y399500D01*
Y389172D02*
Y396500D01*
X569668Y393701D02*
X583701D01*
X580500Y381500D02*
Y388000D01*
X585328D01*
X586500Y389172D01*
X580500Y388000D02*
Y390500D01*
X583701Y393701D01*
X475533Y291200D02*
X478473D01*
X473756Y292977D02*
X474147Y292586D01*
X478135Y294000D02*
X482600D01*
X484200Y292400D01*
X476963Y295172D02*
Y300000D01*
X473621Y293515D02*
X473756Y292977D01*
X474147Y292586D02*
X475533Y291200D01*
X472494Y298023D02*
X473621Y293515D01*
X479645Y290028D02*
X479691Y289316D01*
X476963Y295172D02*
X478135Y294000D01*
X479691Y289316D02*
X481388Y260112D01*
X478473Y291200D02*
X479645Y290028D01*
X467996Y299000D02*
X471517D01*
X472102Y298414D01*
X472103Y298414D02*
X472494Y298023D01*
X473463Y303500D02*
X476963Y300000D01*
X484200Y267589D02*
Y292400D01*
X481926Y259574D02*
X485000Y256500D01*
X481388Y260112D02*
X481926Y259574D01*
X470000Y285700D02*
X475000Y280700D01*
Y262400D02*
X479200Y258200D01*
X475000Y262400D02*
Y280700D01*
X465000Y285700D02*
X470000D01*
X546750Y272650D02*
X549902D01*
X550252Y273000D01*
X543500Y275900D02*
X546750Y272650D01*
X577996Y156000D02*
X597504D01*
X598004Y155500D01*
X528200Y167172D02*
Y172600D01*
X527028Y166000D02*
X528200Y167172D01*
X415300Y127800D02*
X453500Y166000D01*
X527028D01*
X531000Y164662D02*
Y174000D01*
X519800Y161162D02*
X527500D01*
X531000Y164662D01*
X520800Y184200D02*
X531000Y174000D01*
X307100Y151500D02*
Y158828D01*
X296900Y155300D02*
X301600Y160000D01*
X305928D01*
X307100Y158828D01*
X496295Y394496D02*
X501980Y400181D01*
X502064Y325036D02*
Y388509D01*
X501968Y396210D02*
X503140Y397381D01*
X511381D01*
X501968Y388605D02*
Y396210D01*
X502064Y325036D02*
X503700Y323400D01*
X496295Y391669D02*
Y394496D01*
X501968Y388605D02*
X502064Y388509D01*
X501980Y400181D02*
X514000D01*
X490126Y385500D02*
X496295Y391669D01*
X508400Y354600D02*
Y394400D01*
X541339Y402329D02*
Y404000D01*
X531919Y404458D02*
X532376Y404000D01*
X523677Y400673D02*
Y402828D01*
X525306Y404458D01*
X532376Y404000D02*
X541339D01*
X525306Y404458D02*
X531919D01*
X541839Y404000D02*
X578159D01*
X543752Y399500D02*
Y400484D01*
X541339Y402329D02*
X542510Y401158D01*
X543079D02*
X543752Y400484D01*
X542510Y401158D02*
X543079D01*
X568496Y394872D02*
Y399500D01*
Y394872D02*
X569668Y393701D01*
X579331Y400173D02*
X580004Y399500D01*
X579331Y400173D02*
Y402828D01*
X578159Y404000D02*
X579331Y402828D01*
X395000Y175752D02*
X415000Y195752D01*
X395000Y175500D02*
Y175752D01*
X417188Y314961D02*
X418901Y313247D01*
X425700Y316109D02*
Y365200D01*
X422839Y313247D02*
X425700Y316109D01*
X414339Y314961D02*
X417188D01*
X418901Y313247D02*
X422839D01*
X406500Y322800D02*
X414339Y314961D01*
X375187Y322800D02*
X406500D01*
X374016Y321628D02*
X375187Y322800D01*
X374016Y287484D02*
X405000Y256500D01*
X374016Y287484D02*
Y321628D01*
X470000Y203000D02*
Y224800D01*
X582917Y352417D02*
X585500Y355000D01*
X582917Y351696D02*
Y352417D01*
X580019Y348798D02*
X582917Y351696D01*
X577038Y349935D02*
X579004Y351901D01*
Y362000D01*
X580019Y348700D02*
Y348798D01*
X577038Y347116D02*
Y349935D01*
Y347116D02*
X577996Y346158D01*
Y340500D02*
Y346158D01*
X590900Y254500D02*
X594300Y257900D01*
X594000Y202400D02*
Y253600D01*
X607252Y266852D01*
X594300Y257900D02*
Y316400D01*
X580500Y188900D02*
X594000Y202400D01*
X556748Y270000D02*
Y272016D01*
Y273000D01*
X531300Y214100D02*
Y257407D01*
X519131Y257095D02*
X519781Y256444D01*
X520219D01*
X520869Y255794D01*
Y259576D02*
X521924Y260631D01*
X528076D02*
X531300Y257407D01*
X520869Y255794D02*
Y259576D01*
X516711Y260631D02*
X519131Y258211D01*
X488900Y267089D02*
X495359Y260631D01*
X521924D02*
X528076D01*
X520800Y184200D02*
Y255794D01*
X519131Y257095D02*
Y258211D01*
X495359Y260631D02*
X516711D01*
X539748Y269300D02*
Y273500D01*
X556748Y256500D02*
Y270000D01*
X449600Y245200D02*
X470000Y224800D01*
X449600Y245200D02*
Y371100D01*
X550900Y250652D02*
X556748Y256500D01*
X550900Y202100D02*
Y250652D01*
Y202100D02*
X556000Y197000D01*
X531300Y214100D02*
X540719Y204681D01*
X452427Y259073D02*
Y366627D01*
X435416Y357348D02*
X435500Y356773D01*
X430900Y372400D02*
X435416Y357348D01*
X435500Y268272D02*
Y356773D01*
X443100Y270740D02*
Y394000D01*
X425600Y267100D02*
X434328D01*
X429500Y255000D02*
Y257140D01*
X434328Y267100D02*
X435500Y268272D01*
X429500Y257140D02*
X443100Y270740D01*
X624004Y310276D02*
Y346896D01*
Y176000D02*
Y310276D01*
Y170780D02*
Y176000D01*
Y166348D02*
Y170780D01*
X571500Y357177D02*
Y372500D01*
Y340500D02*
Y357177D01*
X607252Y266852D02*
Y270000D01*
Y263496D02*
Y266852D01*
X613248Y252000D02*
Y257500D01*
Y251000D02*
Y252000D01*
X540719Y204681D02*
X549504Y195896D01*
X420964Y387300D02*
Y392300D01*
Y387300D02*
X429200D01*
X594300Y316400D02*
Y339500D01*
X612748Y311552D02*
Y315448D01*
Y308500D02*
Y311552D01*
X585500Y355000D02*
Y362000D01*
X477900Y354000D02*
Y356000D01*
Y330100D02*
Y354000D01*
Y318852D02*
Y330100D01*
X566700Y194100D02*
X576996Y204396D01*
X225500Y173600D02*
Y177752D01*
X219136Y167236D02*
X225500Y173600D01*
X613496Y320784D02*
Y327000D01*
X312000Y153500D02*
Y191720D01*
X298500Y205220D02*
X312000Y191720D01*
X570500Y167300D02*
Y176500D01*
X484400Y153000D02*
X494000D01*
X473748Y152500D02*
X484400Y153000D01*
X420870Y318000D02*
Y338756D01*
X385500Y374126D02*
X420870Y338756D01*
X455227Y329479D02*
X462000Y336252D01*
X455227Y281273D02*
Y329479D01*
Y281273D02*
X458500Y278000D01*
X498000Y342252D02*
Y385500D01*
X492000Y336252D02*
X498000Y342252D01*
X607252Y263496D02*
X613248Y257500D01*
X533252Y273500D02*
Y277500D01*
X536652Y280900D01*
X571037D01*
X577000Y274937D01*
X566500Y239000D02*
X577000Y249500D01*
Y274937D01*
X571500Y303500D02*
X577000Y298000D01*
X603500Y167000D02*
Y176500D01*
Y167000D02*
X604500Y155500D01*
X603500Y176500D02*
Y181600D01*
X630500Y166548D02*
Y176000D01*
Y166548D02*
X630748Y156500D01*
X490469Y292500D02*
Y304000D01*
Y292500D02*
X498400Y283800D01*
X521726D01*
X525426Y287500D01*
X539748D01*
Y292000D01*
X430382Y175000D02*
Y180582D01*
X431200Y181400D01*
X488900Y267089D02*
Y290931D01*
X490469Y292500D01*
X486248Y308221D02*
X490469Y304000D01*
X486248Y308221D02*
Y317000D01*
X494000Y159496D02*
X518134D01*
X519800Y161162D01*
X549504Y176000D02*
Y195896D01*
X461504Y317000D02*
Y327500D01*
X593996Y340500D02*
X594300Y339500D01*
X307100Y151500D02*
X314165Y144435D01*
X421835D01*
X451248Y173848D01*
Y177500D01*
X494800Y310600D02*
Y326800D01*
X487000Y334600D02*
X494800Y326800D01*
X487000Y334600D02*
Y362000D01*
X482000Y367000D02*
X487000Y362000D01*
X302000Y147497D02*
Y153500D01*
Y147497D02*
X321697Y127800D01*
X415300D01*
X510800Y190000D02*
X528200Y172600D01*
X510800Y190000D02*
Y252300D01*
X515000Y256500D01*
X484200Y267589D02*
X490571Y261219D01*
Y254229D02*
Y261219D01*
Y254229D02*
X492500Y252300D01*
X510800D01*
X494800Y409000D02*
X503500D01*
X452427Y366627D02*
X494800Y409000D01*
X452427Y259073D02*
X455000Y256500D01*
X415000D02*
X425600Y267100D01*
X336100Y318300D02*
X395000Y259400D01*
Y256500D02*
Y259400D01*
X435535Y400035D02*
X445000Y409500D01*
X387621Y400035D02*
X435535D01*
X362200Y147500D02*
X376100D01*
X355000Y153000D02*
X379200Y177200D01*
Y200500D01*
X386436Y207736D01*
X453016D01*
X465000Y195752D01*
X466900Y306300D02*
X475200Y314600D01*
X461000Y306300D02*
X466900D01*
X458027Y292673D02*
Y303327D01*
Y292673D02*
X465000Y285700D01*
X479200Y248900D02*
Y258200D01*
X475000Y244700D02*
X479200Y248900D01*
X475000Y195752D02*
Y244700D01*
X470000Y194100D02*
Y199883D01*
X467500Y191600D02*
X470000Y194100D01*
X462500Y191600D02*
X467500D01*
X459200Y194900D02*
X462500Y191600D01*
X459200Y194900D02*
Y197500D01*
X452850Y203850D02*
X459200Y197500D01*
X432350Y203850D02*
X452850D01*
X428500Y200000D02*
X432350Y203850D01*
X423300Y200000D02*
X428500D01*
X420800Y197500D02*
X423300Y200000D01*
X420800Y195400D02*
Y197500D01*
X402500Y177100D02*
X420800Y195400D01*
X402500Y153000D02*
Y177100D01*
X556248Y291500D02*
Y313248D01*
X564000Y321000D01*
X566700Y173052D02*
Y194100D01*
X556248Y162600D02*
X566700Y173052D01*
X556248Y157000D02*
Y162600D01*
X576996Y204396D02*
X582000Y209400D01*
X576996Y176500D02*
Y204396D01*
X530000Y321945D02*
Y333000D01*
X508400Y354600D02*
X530000Y333000D01*
X345200Y286300D02*
X375000Y256500D01*
X345200Y286300D02*
Y304400D01*
X375965Y395165D02*
Y410000D01*
X225500Y201374D02*
X237300Y189574D01*
X383700Y184452D02*
X395000Y195752D01*
X383700Y163900D02*
Y184452D01*
X372800Y153000D02*
X383700Y163900D01*
X322264Y280165D02*
Y318764D01*
X385500Y382000D01*
Y379100D02*
Y382000D01*
X393000Y379100D02*
X403600Y368500D01*
X425000D01*
X427919Y371419D01*
Y375381D01*
X432500D01*
X437500Y370381D01*
Y381000D01*
X480500Y299500D02*
Y304100D01*
X540000Y363677D02*
X565000D01*
X571500Y357177D01*
X345000Y160600D02*
X375100Y190700D01*
X345000Y153000D02*
Y160600D01*
X494000Y153000D02*
X520000D01*
X524000Y157000D01*
X444752Y177500D02*
Y180300D01*
X438600Y186452D02*
X444752Y180300D01*
X459014Y177000D02*
X479752D01*
X446581Y189433D02*
X459014Y177000D01*
X441319Y189433D02*
X446581D01*
X435000Y195752D02*
X441319Y189433D01*
X441700Y195752D02*
X445000D01*
X436402Y201050D02*
X441700Y195752D01*
X433750Y201050D02*
X436402D01*
X430000Y197300D02*
X433750Y201050D01*
X430000Y189835D02*
Y197300D01*
X415618Y175453D02*
X430000Y189835D01*
X415618Y175000D02*
Y175453D01*
X465874Y145000D02*
Y152500D01*
Y145000D02*
X470874Y140000D01*
X626259D01*
X634300Y148041D01*
Y361048D01*
X612248Y383100D02*
X634300Y361048D01*
X612248Y383100D02*
Y387000D01*
X630748Y154148D02*
Y156500D01*
X624800Y148200D02*
X630748Y154148D01*
X571500Y162700D02*
X580500Y171700D01*
Y188900D01*
X612748Y315448D02*
X617300Y320000D01*
Y332550D01*
X613000Y336850D02*
X617300Y332550D01*
X613000Y336850D02*
Y347000D01*
X600500Y323800D02*
X612748Y311552D01*
X600500Y323800D02*
Y345800D01*
X595000Y351300D02*
X600500Y345800D01*
X589200Y351300D02*
X595000D01*
X585500Y355000D02*
X589200Y351300D01*
X420964Y392300D02*
X422664Y394000D01*
X443100D01*
X425300Y250800D02*
X429500Y255000D01*
X370700Y250800D02*
X425300D01*
X365000Y256500D02*
X370700Y250800D01*
X420964Y381000D02*
Y387300D01*
X539800Y390600D02*
X557600D01*
X562000Y395000D01*
Y399500D01*
X486996Y299500D02*
Y302604D01*
X480100Y309500D02*
X486996Y302604D01*
X475200Y309500D02*
X480100D01*
X613000Y357900D02*
Y366500D01*
Y357900D02*
X624004Y346896D01*
X615300Y252000D02*
X620100Y256800D01*
Y346804D01*
X606504Y360400D02*
X620100Y346804D01*
X606504Y360400D02*
Y366500D01*
X606252Y305422D02*
Y308500D01*
Y305422D02*
X606500Y305174D01*
Y289000D02*
Y305174D01*
X613748Y270000D02*
Y277948D01*
X616800Y281000D01*
Y298522D01*
X612748Y302574D02*
X616800Y298522D01*
X612748Y302574D02*
Y308500D01*
X477900Y330100D02*
X485971D01*
X490601Y325470D01*
Y308241D02*
Y325470D01*
X507248Y292000D02*
Y301852D01*
X549752Y287500D02*
Y291500D01*
X546952Y284700D02*
X549752Y287500D01*
X534000Y284700D02*
X546952D01*
X526800Y277500D02*
X534000Y284700D01*
X514500Y277500D02*
X526800D01*
X505496Y316500D02*
Y316800D01*
X571500Y372500D02*
X580500Y381500D01*
X523748Y292000D02*
Y298805D01*
X540000Y315057D02*
Y321945D01*
X276488Y177500D02*
Y263917D01*
X292736Y280165D01*
X435000Y169752D02*
Y195752D01*
X418248Y153000D02*
X435000Y169752D01*
X479752Y242352D02*
X485000Y247600D01*
X479752Y177000D02*
Y242352D01*
Y173548D02*
Y177000D01*
Y173548D02*
X482520Y170780D01*
X524000D01*
X598004Y152500D02*
Y155500D01*
Y152500D02*
X600504Y150000D01*
X621752D01*
X624252Y152500D01*
Y156500D01*
X458500Y273000D02*
Y278000D01*
Y273000D02*
X475000Y256500D01*
X322264Y262364D02*
Y280165D01*
X316500Y256600D02*
X322264Y262364D01*
X290900Y248226D02*
X295000Y244126D01*
X490700Y195752D02*
X495000D01*
X490700Y181452D02*
Y195752D01*
X486248Y177000D02*
X490700Y181452D01*
X225500Y201374D02*
Y216500D01*
X238500Y229500D01*
X492000Y336252D02*
X499000Y329252D01*
X605752Y384048D02*
Y387000D01*
Y384048D02*
X613000Y376800D01*
Y366500D02*
Y376800D01*
X525000Y205100D02*
Y256500D01*
Y205100D02*
X537000Y193100D01*
Y173000D02*
Y193100D01*
Y173000D02*
X549752Y160248D01*
Y157000D02*
Y160248D01*
X472000Y361900D02*
Y367000D01*
Y361900D02*
X477900Y356000D01*
Y318852D02*
X479752Y317000D01*
X606752Y250000D02*
Y251000D01*
X597004Y245000D02*
X602004Y250000D01*
X597004Y176500D02*
Y245000D01*
X587000Y274937D02*
X591500Y279437D01*
X606500Y280252D02*
Y289000D01*
Y280252D02*
X607252Y279500D01*
Y270000D02*
Y279500D01*
X292000Y153500D02*
Y211576D01*
X291538Y212038D02*
X292000Y211576D01*
X291538Y212038D02*
Y240664D01*
X295000Y244126D01*
Y252000D02*
X299100Y247900D01*
Y227962D02*
Y247900D01*
X294338Y223200D02*
X299100Y227962D01*
X294338Y214800D02*
Y223200D01*
Y214800D02*
X298500Y210638D01*
Y205220D02*
Y210638D01*
X556000Y176000D02*
Y197000D01*
X500752Y287500D02*
Y292000D01*
Y287500D02*
X517252D01*
X624004Y166348D02*
X624252Y166100D01*
Y156500D02*
Y166100D01*
X597004Y166500D02*
Y176500D01*
Y166500D02*
X598004Y165500D01*
Y155500D02*
Y165500D01*
X415618Y166544D02*
Y175000D01*
X410374Y161300D02*
X415618Y166544D01*
X410374Y153000D02*
Y161300D01*
X540000Y321945D02*
Y363677D01*
X523748Y292000D02*
X533252D01*
X577000Y274937D02*
Y298000D01*
D62*
X313700Y396000D02*
X345071D01*
X348000Y398929D01*
X310000Y392300D02*
X313700Y396000D01*
X348671Y405671D02*
X349500Y406500D01*
X348671Y402609D02*
Y405671D01*
X348000Y398929D02*
Y401938D01*
X348671Y402609D01*
X316929Y388000D02*
X351000D01*
X314000Y385071D02*
X316929Y388000D01*
X314000Y368350D02*
Y385071D01*
Y368350D02*
X322264Y360087D01*
X351000Y388000D02*
X369500Y406500D01*
X305429Y392300D02*
X310000D01*
X302500Y389371D02*
X305429Y392300D01*
X302500Y369850D02*
Y389371D01*
X255500Y292000D02*
X302000Y338500D01*
X292736Y360087D02*
X302000Y350823D01*
Y338500D02*
Y350823D01*
X272840Y418000D02*
X282000Y408841D01*
X251500Y408500D02*
X261000Y418000D01*
X272840D01*
X282000Y350980D02*
Y408841D01*
Y350980D02*
X292736Y340244D01*
X556748Y272016D02*
X571264Y257500D01*
X495330Y276658D02*
X501568Y270421D01*
X507069Y264931D02*
X529857D01*
X535288Y259500D02*
X546248D01*
X529857Y264931D02*
X535288Y259500D01*
X495330Y276658D02*
Y276670D01*
X501580Y270421D02*
X507069Y264931D01*
X546248Y259500D02*
X556748Y270000D01*
X494500Y277500D02*
X495330Y276670D01*
X501568Y270421D02*
X501580D01*
X381500Y318000D02*
X428100Y271400D01*
X251500Y386500D02*
Y408500D01*
X239000Y374000D02*
X251500Y386500D01*
X239000Y312000D02*
X271500Y344500D01*
Y408500D01*
X239000Y292000D02*
X255500D01*
X292736Y360087D02*
X302500Y369850D01*
D63*
X228000Y140000D02*
D03*
X332000Y177500D02*
D03*
D64*
X228000Y150000D02*
D03*
X238000Y140000D02*
D03*
Y150000D02*
D03*
X248000Y140000D02*
D03*
Y150000D02*
D03*
X258000Y140000D02*
D03*
Y150000D02*
D03*
X268000Y140000D02*
D03*
Y150000D02*
D03*
X278000Y140000D02*
D03*
Y150000D02*
D03*
X276488Y177500D02*
D03*
D65*
X577000Y274937D02*
D03*
X582000Y280437D02*
D03*
X587000Y274937D02*
D03*
X577000Y298000D02*
D03*
X582000Y303500D02*
D03*
X587000Y298000D02*
D03*
X576500Y321000D02*
D03*
X581500Y326500D02*
D03*
X586500Y321000D02*
D03*
X458500Y278000D02*
D03*
X463500Y274654D02*
D03*
X468500Y278000D02*
D03*
D66*
X473748Y152500D02*
D03*
X418248Y153000D02*
D03*
D67*
X465874Y152500D02*
D03*
X458000D02*
D03*
X450126D02*
D03*
X394626Y153000D02*
D03*
X402500D02*
D03*
X410374D02*
D03*
X225500Y185626D02*
D03*
Y193500D02*
D03*
Y201374D02*
D03*
D68*
X524000Y157000D02*
D03*
X298500Y219000D02*
D03*
D69*
X524000Y170780D02*
D03*
X298500Y205220D02*
D03*
X503500Y409000D02*
D03*
D70*
X239000Y374000D02*
D03*
Y354000D02*
D03*
Y312000D02*
D03*
Y292000D02*
D03*
X238500Y229500D02*
D03*
Y249500D02*
D03*
X612500Y231000D02*
D03*
Y211000D02*
D03*
D71*
X295000Y252000D02*
D03*
X395000Y175500D02*
D03*
X385500Y382000D02*
D03*
X490126Y385500D02*
D03*
D72*
X295000Y244126D02*
D03*
X385500Y374126D02*
D03*
D73*
X381500Y318000D02*
D03*
D74*
X420870D02*
D03*
D75*
X329500Y406500D02*
D03*
X349500D02*
D03*
X369500D02*
D03*
X291500Y408500D02*
D03*
X271500D02*
D03*
X251500D02*
D03*
D76*
X389500Y406500D02*
D03*
X231500Y408500D02*
D03*
D77*
X494500Y277500D02*
D03*
X504500D02*
D03*
D78*
X514500D02*
D03*
D79*
X525000Y256500D02*
D03*
D80*
X515000D02*
D03*
X505000D02*
D03*
X495000D02*
D03*
X485000D02*
D03*
X475000D02*
D03*
X465000D02*
D03*
X455000D02*
D03*
X445000D02*
D03*
X435000D02*
D03*
X425000D02*
D03*
X415000D02*
D03*
X405000D02*
D03*
X395000D02*
D03*
X385000D02*
D03*
X375000D02*
D03*
X365000D02*
D03*
X355000D02*
D03*
X345000D02*
D03*
X335000D02*
D03*
Y195752D02*
D03*
X345000D02*
D03*
X355000D02*
D03*
X365000D02*
D03*
X375000D02*
D03*
X385000D02*
D03*
X395000D02*
D03*
X405000D02*
D03*
X415000D02*
D03*
X425000D02*
D03*
X435000D02*
D03*
X445000D02*
D03*
X455000D02*
D03*
X465000D02*
D03*
X475000D02*
D03*
X485000D02*
D03*
X495000D02*
D03*
X505000D02*
D03*
X515000D02*
D03*
X525000D02*
D03*
D81*
X206693Y413386D02*
D03*
Y127953D02*
D03*
X610236D02*
D03*
Y413386D02*
D03*
D82*
X462000Y367000D02*
D03*
X472000D02*
D03*
X482000D02*
D03*
X492000D02*
D03*
Y336252D02*
D03*
X482000D02*
D03*
X472000D02*
D03*
D83*
X462000D02*
D03*
D84*
X348937Y175500D02*
D03*
X498000Y385500D02*
D03*
D85*
X365000Y153000D02*
D03*
X355000D02*
D03*
X302000Y153500D02*
D03*
X312000D02*
D03*
X249500Y189500D02*
D03*
Y199500D02*
D03*
D86*
X345000Y153000D02*
D03*
X292000Y153500D02*
D03*
D87*
X511374Y409000D02*
D03*
D88*
X435000Y409500D02*
D03*
X445000D02*
D03*
X455000D02*
D03*
X465000D02*
D03*
D89*
X475000D02*
D03*
D90*
X225500Y177752D02*
D03*
D91*
X249500Y179500D02*
D03*
D92*
X566500Y239000D02*
D03*
X556500D02*
D03*
Y209000D02*
D03*
X566500D02*
D03*
D93*
X232000Y168000D02*
D03*
X602000Y314000D02*
D03*
X529000Y386600D02*
D03*
X334946Y403242D02*
D03*
X328100Y346300D02*
D03*
X394000Y168000D02*
D03*
X363900Y383100D02*
D03*
X610700Y300000D02*
D03*
X508400Y394400D02*
D03*
X470000Y203000D02*
D03*
X580019Y348700D02*
D03*
X590900Y254500D02*
D03*
X539748Y269300D02*
D03*
X449600Y371100D02*
D03*
X545000Y339481D02*
D03*
X624004Y310276D02*
D03*
X613496Y320784D02*
D03*
X624004Y170780D02*
D03*
X603500Y181600D02*
D03*
X431200Y181400D02*
D03*
X540719Y204681D02*
D03*
X461504Y327500D02*
D03*
X430900Y372400D02*
D03*
X425700Y365200D02*
D03*
X336100Y318300D02*
D03*
X362200Y147500D02*
D03*
X285800Y165200D02*
D03*
X503700Y323400D02*
D03*
X475200Y314600D02*
D03*
X470000Y199883D02*
D03*
X564000Y321000D02*
D03*
X345200Y304400D02*
D03*
X372800Y153000D02*
D03*
X480500Y304100D02*
D03*
X375100Y190700D02*
D03*
X438600Y186452D02*
D03*
X624800Y148200D02*
D03*
X429200Y387300D02*
D03*
X539800Y390600D02*
D03*
X475200Y309500D02*
D03*
X512200Y316800D02*
D03*
X543500Y275900D02*
D03*
D94*
X571264Y257500D02*
D03*
D95*
X428100Y271400D02*
D03*
M02*
